<?xml version="1.0" encoding="UTF-8"?>
<!DOCTYPE svg PUBLIC "-//W3C//DTD SVG 1.1//EN" "http://www.w3.org/Graphics/SVG/1.1/DTD/svg11.dtd">
<svg version="1.2" width="215.9mm" height="279.4mm" viewBox="0 0 21590 27940" preserveAspectRatio="xMidYMid" fill-rule="evenodd" stroke-width="28.222" stroke-linejoin="round" xmlns="http://www.w3.org/2000/svg" xmlns:ooo="http://xml.openoffice.org/svg/export" xmlns:xlink="http://www.w3.org/1999/xlink" xmlns:presentation="http://sun.com/xmlns/staroffice/presentation" xmlns:smil="http://www.w3.org/2001/SMIL20/" xmlns:anim="urn:oasis:names:tc:opendocument:xmlns:animation:1.0" xml:space="preserve">
 <defs class="ClipPathGroup">
  <clipPath id="presentation_clip_path" clipPathUnits="userSpaceOnUse">
   <rect x="0" y="0" width="21590" height="27940"/>
  </clipPath>
  <clipPath id="presentation_clip_path_shrink" clipPathUnits="userSpaceOnUse">
   <rect x="21" y="27" width="21547" height="27885"/>
  </clipPath>
 </defs>
 <defs class="TextShapeIndex">
  <g ooo:slide="id1" ooo:id-list="id3 id4 id5 id6 id7 id8 id9"/>
 </defs>
 <defs class="EmbeddedBulletChars">
  <g id="bullet-char-template-57356" transform="scale(0.00048828125,-0.00048828125)">
   <path d="M 580,1141 L 1163,571 580,0 -4,571 580,1141 Z"/>
  </g>
  <g id="bullet-char-template-57354" transform="scale(0.00048828125,-0.00048828125)">
   <path d="M 8,1128 L 1137,1128 1137,0 8,0 8,1128 Z"/>
  </g>
  <g id="bullet-char-template-10146" transform="scale(0.00048828125,-0.00048828125)">
   <path d="M 174,0 L 602,739 174,1481 1456,739 174,0 Z M 1358,739 L 309,1346 659,739 1358,739 Z"/>
  </g>
  <g id="bullet-char-template-10132" transform="scale(0.00048828125,-0.00048828125)">
   <path d="M 2015,739 L 1276,0 717,0 1260,543 174,543 174,936 1260,936 717,1481 1274,1481 2015,739 Z"/>
  </g>
  <g id="bullet-char-template-10007" transform="scale(0.00048828125,-0.00048828125)">
   <path d="M 0,-2 C -7,14 -16,27 -25,37 L 356,567 C 262,823 215,952 215,954 215,979 228,992 255,992 264,992 276,990 289,987 310,991 331,999 354,1012 L 381,999 492,748 772,1049 836,1024 860,1049 C 881,1039 901,1025 922,1006 886,937 835,863 770,784 769,783 710,716 594,584 L 774,223 C 774,196 753,168 711,139 L 727,119 C 717,90 699,76 672,76 641,76 570,178 457,381 L 164,-76 C 142,-110 111,-127 72,-127 30,-127 9,-110 8,-76 1,-67 -2,-52 -2,-32 -2,-23 -1,-13 0,-2 Z"/>
  </g>
  <g id="bullet-char-template-10004" transform="scale(0.00048828125,-0.00048828125)">
   <path d="M 285,-33 C 182,-33 111,30 74,156 52,228 41,333 41,471 41,549 55,616 82,672 116,743 169,778 240,778 293,778 328,747 346,684 L 369,508 C 377,444 397,411 428,410 L 1163,1116 C 1174,1127 1196,1133 1229,1133 1271,1133 1292,1118 1292,1087 L 1292,965 C 1292,929 1282,901 1262,881 L 442,47 C 390,-6 338,-33 285,-33 Z"/>
  </g>
  <g id="bullet-char-template-9679" transform="scale(0.00048828125,-0.00048828125)">
   <path d="M 813,0 C 632,0 489,54 383,161 276,268 223,411 223,592 223,773 276,916 383,1023 489,1130 632,1184 813,1184 992,1184 1136,1130 1245,1023 1353,916 1407,772 1407,592 1407,412 1353,268 1245,161 1136,54 992,0 813,0 Z"/>
  </g>
  <g id="bullet-char-template-8226" transform="scale(0.00048828125,-0.00048828125)">
   <path d="M 346,457 C 273,457 209,483 155,535 101,586 74,649 74,723 74,796 101,859 155,911 209,963 273,989 346,989 419,989 480,963 531,910 582,859 608,796 608,723 608,648 583,586 532,535 482,483 420,457 346,457 Z"/>
  </g>
  <g id="bullet-char-template-8211" transform="scale(0.00048828125,-0.00048828125)">
   <path d="M -4,459 L 1135,459 1135,606 -4,606 -4,459 Z"/>
  </g>
  <g id="bullet-char-template-61548" transform="scale(0.00048828125,-0.00048828125)">
   <path d="M 173,740 C 173,903 231,1043 346,1159 462,1274 601,1332 765,1332 928,1332 1067,1274 1183,1159 1299,1043 1357,903 1357,740 1357,577 1299,437 1183,322 1067,206 928,148 765,148 601,148 462,206 346,322 231,437 173,577 173,740 Z"/>
  </g>
 </defs>
 <defs class="TextEmbeddedBitmaps"/>
 <g>
  <g id="id2" class="Master_Slide">
   <g id="bg-id2" class="Background"/>
   <g id="bo-id2" class="BackgroundObjects"/>
  </g>
 </g>
 <g class="SlideGroup">
  <g>
   <g id="container-id1">
    <g id="id1" class="Slide" clip-path="url(#presentation_clip_path)">
     <g class="Page">
      <g class="com.sun.star.drawing.OpenBezierShape">
       <g id="id3">
        <rect class="BoundingBox" stroke="none" fill="none" x="1644" y="1611" width="781" height="1347"/>
        <path fill="none" stroke="rgb(0,0,0)" stroke-width="104" stroke-linejoin="round" stroke-linecap="round" d="M 1702,1689 C 1701,1689 1701,1689 1701,1689 1700,1689 1700,1689 1700,1689 1698,1689 1698,1689 1698,1689 L 1698,1689 C 1697,1689 1697,1689 1696,1689 1697,1689 1697,1689 1697,1689 L 1698,1688 C 1700,1688 1700,1688 1705,1688 1711,1688 1711,1688 1712,1688 1713,1688 1713,1688 1724,1686 1736,1686 1736,1686 1739,1685 1742,1685 1742,1685 1770,1683 1798,1682 1798,1682 1821,1680 1844,1679 1844,1679 1851,1679 1859,1678 1859,1678 1891,1677 1921,1676 1921,1676 1928,1676 1934,1676 1934,1676 1963,1673 1991,1670 1991,1670 2014,1669 2037,1668 2037,1668 2047,1667 2058,1667 2058,1667 2090,1666 2122,1665 2122,1665 2126,1665 2130,1665 2130,1665 2158,1664 2185,1663 2185,1663 2200,1663 2215,1663 2215,1663 2227,1663 2237,1663 2237,1663 2247,1663 2256,1663 2256,1663 2256,1663 2257,1663 2257,1663 2267,1664 2277,1665 2277,1665 2281,1666 2286,1666 2286,1666 2293,1668 2299,1670 2299,1670 2307,1672 2315,1674 2315,1674 2315,1674 2316,1675 2316,1675 2324,1676 2333,1678 2333,1678 2336,1679 2339,1679 2339,1679 2342,1682 2346,1684 2346,1684 2351,1685 2355,1687 2355,1687 2356,1687 2357,1688 2357,1688 2361,1689 2364,1691 2364,1691 2365,1692 2366,1692 2366,1692 2368,1695 2370,1699 2370,1699 2371,1703 2371,1708 2371,1708 2372,1710 2372,1712 2372,1712 2372,1721 2372,1731 2372,1731 2372,1732 2372,1734 2372,1734 2370,1743 2368,1753 2368,1753 2364,1767 2359,1782 2359,1782 2356,1791 2353,1800 2353,1800 2349,1811 2346,1824 2346,1824 2345,1825 2345,1826 2345,1826 2340,1855 2335,1883 2335,1883 2332,1899 2329,1914 2329,1914 2324,1924 2319,1934 2319,1934 2316,1957 2312,1980 2312,1980 2312,1980 2312,1981 2312,1981 2310,2007 2308,2033 2308,2033 2307,2044 2307,2055 2307,2055 2306,2055 2306,2054 2306,2054 2306,2078 2306,2101 2306,2101 2306,2104 2306,2108 2306,2108 2307,2136 2308,2164 2308,2164 2309,2173 2309,2182 2309,2182 2312,2199 2314,2216 2314,2216 2317,2240 2320,2264 2320,2264 2320,2271 2322,2278 2322,2278 2325,2310 2329,2342 2329,2342 2330,2349 2330,2356 2330,2356 2332,2383 2335,2409 2335,2409 2336,2430 2337,2451 2337,2451 2338,2461 2338,2471 2338,2471 2340,2498 2342,2525 2342,2525 2342,2529 2342,2532 2342,2532 2345,2554 2348,2576 2348,2576 2348,2589 2349,2602 2349,2602 2349,2612 2349,2622 2349,2622 2351,2634 2353,2645 2353,2645 2353,2645 2353,2645 2353,2645 2353,2670 2353,2693 2353,2693 2353,2705 2353,2716 2353,2716 2352,2730 2351,2744 2351,2744 2351,2752 2349,2759 2349,2759 2349,2760 2349,2761 2349,2761 2346,2770 2344,2779 2344,2779 2343,2783 2342,2786 2342,2786 2337,2793 2333,2800 2333,2800 2329,2808 2325,2817 2325,2817 2324,2819 2323,2821 2323,2821 2317,2831 2310,2841 2310,2841 2309,2844 2307,2847 2307,2847 2300,2851 2293,2856 2293,2856 2287,2861 2281,2867 2281,2867 2279,2869 2277,2871 2277,2871 2268,2876 2260,2880 2260,2880 2258,2881 2257,2882 2257,2882 2247,2886 2237,2890 2237,2890 2223,2894 2209,2897 2209,2897 2200,2900 2191,2903 2191,2903 2180,2904 2170,2905 2170,2905 2169,2905 2169,2905 2169,2905 2145,2905 2122,2905 2122,2905 2109,2905 2097,2905 2097,2905 2100,2902 2103,2899 2103,2899 2080,2893 2058,2887 2058,2887 2057,2886 2056,2886 2056,2886 2047,2883 2037,2880 2037,2880 2034,2879 2029,2878 2029,2878 2022,2874 2015,2869 2015,2869 2005,2862 1994,2855 1994,2855 1992,2854 1991,2853 1991,2853 1979,2843 1968,2834 1968,2834 1965,2831 1962,2828 1962,2828 1956,2821 1952,2815 1952,2815 1945,2807 1939,2800 1939,2800 1937,2797 1934,2794 1934,2794 1926,2768 1918,2740 1918,2740 1916,2735 1914,2730 1914,2730 1914,2730"/>
       </g>
      </g>
      <g class="com.sun.star.drawing.OpenBezierShape">
       <g id="id4">
        <rect class="BoundingBox" stroke="none" fill="none" x="2470" y="2401" width="120" height="108"/>
        <path fill="none" stroke="rgb(0,0,0)" stroke-width="104" stroke-linejoin="round" stroke-linecap="round" d="M 2536,2456 C 2533,2456 2533,2456 2533,2456 2531,2456 2531,2456 2530,2456 2529,2456 2529,2456 2528,2455 2527,2454 2527,2454 2526,2454 2525,2454 2525,2454 2525,2454 L 2523,2454 C 2523,2454 2523,2454 2522,2454 2523,2454 2523,2454 2523,2454 2524,2454 2524,2454 2524,2454 2525,2454 2525,2454 2525,2454"/>
       </g>
      </g>
      <g class="com.sun.star.drawing.OpenBezierShape">
       <g id="id5">
        <rect class="BoundingBox" stroke="none" fill="none" x="2755" y="1637" width="191" height="778"/>
        <path fill="none" stroke="rgb(0,0,0)" stroke-width="104" stroke-linejoin="round" stroke-linecap="round" d="M 2818,1689 C 2817,1689 2817,1689 2817,1689 2816,1689 2816,1689 2814,1689 2812,1689 2812,1689 2812,1689 L 2811,1689 C 2810,1689 2810,1689 2810,1689 2810,1689 2810,1689 2810,1689 L 2810,1690 C 2809,1691 2809,1691 2808,1692 2808,1692 2808,1692 2808,1692 2809,1693 2809,1693 2809,1696 2809,1698 2809,1698 2809,1698 2809,1699 2809,1699 2810,1704 2812,1710 2812,1710 2813,1713 2814,1715 2814,1715 2814,1723 2814,1731 2814,1731 2816,1739 2817,1748 2817,1748 2817,1749 2818,1751 2818,1751 2823,1777 2827,1803 2827,1803 2829,1811 2830,1820 2830,1820 2835,1837 2840,1854 2840,1854 2843,1875 2846,1896 2846,1896 2846,1900 2846,1904 2846,1904 2849,1915 2852,1927 2852,1927 2853,1930 2854,1933 2854,1933 2856,1966 2858,1997 2858,1997 2858,2018 2858,2039 2858,2039 2858,2046 2858,2054 2858,2054 2862,2083 2865,2112 2865,2112 2866,2117 2866,2123 2866,2123 2869,2146 2870,2170 2870,2170 2870,2176 2870,2183 2870,2183 2870,2186 2870,2190 2870,2190 2873,2202 2875,2215 2875,2215 2875,2216 2875,2216 2875,2216 2876,2242 2876,2267 2876,2267 2877,2281 2878,2294 2878,2294 2878,2289 2878,2284 2878,2284 2879,2292 2880,2301 2880,2301 2880,2301 2880,2301 2880,2301 2882,2308 2884,2316 2884,2316 2885,2319 2885,2323 2885,2323 2886,2326 2888,2329 2888,2329 2888,2333 2889,2337 2889,2337 2889,2338 2889,2339 2889,2339 2891,2342 2891,2346 2891,2346 2892,2347 2892,2349 2892,2349 2892,2351 2891,2353 2891,2353 2892,2355 2893,2356 2893,2356 2893,2357 L 2893,2359 C 2893,2361 2893,2361 2893,2362 2893,2361 2893,2361 2893,2361"/>
       </g>
      </g>
      <g class="com.sun.star.drawing.OpenBezierShape">
       <g id="id6">
        <rect class="BoundingBox" stroke="none" fill="none" x="2844" y="2029" width="363" height="123"/>
        <path fill="none" stroke="rgb(0,0,0)" stroke-width="104" stroke-linejoin="round" stroke-linecap="round" d="M 2896,2099 C 2897,2099 2897,2099 2897,2099 2898,2099 2898,2099 2899,2099 2900,2099 2900,2099 2901,2099 2902,2099 2902,2099 2903,2099 2904,2099 2904,2099 2906,2099 2908,2099 2908,2099 2908,2099 L 2911,2099 C 2915,2099 2915,2099 2917,2099 2919,2099 2919,2099 2924,2099 2928,2099 2928,2099 2935,2099 2943,2099 2943,2099 2944,2099 2944,2099 2944,2099 2954,2099 2964,2099 2964,2099 2968,2099 2973,2099 2973,2099 2991,2095 3010,2091 3010,2091 3032,2089 3055,2086 3055,2086 3056,2086 3059,2085 3059,2085 3069,2085 3079,2085 3079,2085 3084,2085 3090,2085 3090,2085 3094,2085 3097,2084 3097,2084 3106,2083 3115,2082 3115,2082 3116,2082 3117,2082 3117,2082 3126,2082 3134,2082 3134,2082 3137,2082 3140,2082 3140,2082 3146,2082 3153,2082 3153,2082 3153,2082"/>
       </g>
      </g>
      <g class="com.sun.star.drawing.OpenBezierShape">
       <g id="id7">
        <rect class="BoundingBox" stroke="none" fill="none" x="3074" y="1583" width="180" height="772"/>
        <path fill="none" stroke="rgb(0,0,0)" stroke-width="104" stroke-linejoin="round" stroke-linecap="round" d="M 3144,1635 C 3142,1635 3142,1635 3142,1635 3142,1635 3142,1635 3141,1635 3139,1635 3139,1635 3140,1635 L 3139,1635 C 3138,1635 3138,1635 3138,1635 L 3137,1635 C 3136,1635 3136,1635 3136,1635 L 3136,1637 C 3136,1639 3136,1639 3136,1639 L 3136,1642 C 3136,1644 3136,1644 3136,1646 3136,1647 3136,1647 3135,1649 3134,1650 3134,1650 3133,1657 3132,1665 3132,1665 3132,1666 3132,1667 3132,1667 3132,1679 3132,1689 3132,1689 3132,1695 3132,1702 3132,1702 3131,1724 3131,1747 3131,1747 3129,1758 3128,1770 3128,1770 3128,1770 L 3128,1799 C 3126,1827 3126,1827 3126,1842 3126,1856 3126,1856 3126,1870 3126,1883 3126,1883 3128,1894 3130,1904 3130,1904 3130,1904 3131,1904 3131,1904 3135,1931 3139,1958 3139,1958 3142,1970 3144,1980 3144,1980 3147,1997 3149,2014 3149,2014 3151,2024 3154,2033 3154,2033 3154,2035 3155,2037 3155,2037 3162,2067 3168,2097 3168,2097 3170,2106 3173,2115 3173,2115 3173,2135 3174,2155 3174,2155 3175,2164 3177,2173 3177,2173 3177,2177 3178,2180 3178,2180 3180,2191 3181,2202 3181,2202 3182,2204 3182,2206 3182,2206 3183,2213 3183,2220 3183,2220 3184,2226 3184,2232 3184,2232 3185,2235 3185,2238 3185,2238 3186,2243 3187,2249 3187,2249 3187,2249 3187,2250 3187,2250 3188,2255 3189,2260 3189,2260 3190,2263 3190,2265 3190,2265 3190,2267 3191,2267 3191,2267 3191,2271 3193,2275 3193,2275 3193,2275 L 3194,2278 C 3194,2281 3194,2281 3195,2282 3196,2283 3196,2283 3195,2284 3194,2286 3194,2286 3194,2288 3194,2290 3194,2290 3194,2290 L 3196,2292 C 3196,2294 3196,2294 3197,2294 3197,2295 3197,2295 3197,2295 3196,2295 3196,2295 3197,2296 3198,2297 3198,2297 3198,2297 3198,2297 3198,2297 3199,2299 3200,2301 3200,2301 3200,2301 3200,2302 3200,2302 3200,2302"/>
       </g>
      </g>
      <g class="com.sun.star.drawing.OpenBezierShape">
       <g id="id8">
        <rect class="BoundingBox" stroke="none" fill="none" x="3307" y="1643" width="1811" height="730"/>
        <path fill="none" stroke="rgb(0,0,0)" stroke-width="104" stroke-linejoin="round" stroke-linecap="round" d="M 3492,1968 C 3491,1968 3491,1968 3491,1968 3490,1968 3490,1968 3489,1968 3486,1970 3486,1970 3487,1970 L 3486,1970 C 3485,1971 3485,1971 3485,1972 3484,1973 3484,1973 3482,1973 3481,1973 3481,1973 3479,1974 3478,1976 3478,1976 3477,1976 L 3475,1976 C 3473,1977 3473,1977 3473,1977 3472,1978 3472,1978 3468,1980 3464,1981 3464,1981 3459,1983 3454,1986 3454,1986 3453,1986 3453,1986 3453,1986 3447,1990 3442,1994 3442,1994 3440,1996 3437,1997 3437,1997 3432,2001 3427,2005 3427,2005 3421,2012 3414,2018 3414,2018 3413,2019 3412,2020 3412,2020 3406,2027 3401,2034 3401,2034 3399,2036 3398,2038 3398,2038 3394,2042 3391,2047 3391,2047 3388,2052 3386,2056 3386,2056 3385,2058 3384,2060 3384,2060 3380,2066 3377,2073 3377,2073 3376,2074 3375,2075 3375,2075 3374,2082 3372,2090 3372,2090 3371,2095 3369,2099 3369,2099 3368,2102 3367,2105 3367,2105 3366,2115 3365,2125 3365,2125 3365,2126 3365,2127 3365,2127 3363,2137 3361,2146 3361,2146 3361,2151 3359,2156 3359,2156 3361,2161 3361,2167 3361,2167 3362,2176 3363,2184 3363,2184 3363,2185 L 3366,2195 C 3369,2204 3369,2204 3370,2208 3371,2212 3371,2212 3373,2215 3374,2217 3374,2217 3378,2223 3381,2230 3381,2230 3381,2231 3382,2232 3382,2232 3385,2236 3390,2241 3390,2241 3391,2243 3392,2244 3392,2244 3396,2247 3401,2251 3401,2251 3405,2254 3409,2256 3409,2256 3411,2257 3412,2258 3412,2258 3419,2260 3427,2262 3427,2262 3427,2262 3428,2262 3428,2262 3439,2263 3449,2264 3449,2264 3454,2264 3459,2264 3459,2264 3465,2264 3472,2264 3472,2264 3482,2263 3492,2262 3492,2262 3493,2262 3495,2262 3495,2262 3505,2260 3515,2258 3515,2258 3520,2257 3526,2256 3526,2256 3529,2252 3531,2249 3531,2249 3540,2243 3548,2238 3548,2238 3548,2238 3549,2237 3549,2237 3554,2230 3560,2223 3560,2223 3562,2219 3565,2215 3565,2215 3568,2212 3571,2207 3571,2207 3573,2201 3576,2195 3576,2195 3577,2192 3578,2189 3578,2189 3581,2180 3584,2172 3584,2172 3584,2171 3584,2170 3584,2170 3586,2161 3587,2153 3587,2153 3588,2145 3589,2137 3589,2137 3589,2134 3590,2131 3590,2131 3590,2121 3590,2112 3590,2112 3590,2111 3590,2109 3590,2109 3587,2102 3586,2095 3586,2095 3583,2090 3579,2085 3579,2085 3578,2083 3576,2081 3576,2081 3574,2075 3571,2069 3571,2069 3570,2068 3570,2068 3570,2068 3565,2064 3561,2060 3561,2060 3560,2058 3558,2055 3558,2055 3557,2054 3556,2052 3556,2052 3553,2050 3550,2049 3550,2049 3550,2049 L 3546,2047 C 3542,2045 3542,2045 3541,2044 3539,2043 3539,2043 3539,2044 3539,2045 3539,2045 3537,2045 3535,2045 3535,2045 3535,2045 L 3534,2045 C 3531,2045 3531,2045 3531,2045 3530,2045 3530,2045 3531,2047 3531,2049 3531,2049 3532,2051 3533,2053 3533,2053 3533,2054 3534,2055 3534,2055 3535,2056 3537,2058 3537,2058 3538,2059 3538,2059 3538,2059 3542,2061 3547,2062 3547,2062 3551,2065 3556,2068 3556,2068 3558,2068 3560,2069 3560,2069 3570,2073 3580,2076 3580,2076 3582,2078 3584,2078 3584,2078 3610,2083 3636,2088 3636,2088 3643,2089 3650,2089 3650,2089 3655,2089 3659,2090 3659,2090 3669,2090 3679,2090 3679,2090 3680,2090 3681,2090 3681,2090 3691,2089 3699,2088 3699,2088 3705,2088 3710,2087 3710,2087 3714,2086 3718,2084 3718,2084 3726,2081 3733,2079 3733,2079 3733,2079 L 3739,2076 C 3744,2075 3744,2075 3747,2074 3750,2074 3750,2074 3751,2072 3754,2071 3754,2071 3757,2069 3761,2068 3761,2068 3761,2068 3761,2068 3761,2068 3763,2066 3765,2063 3765,2063 3766,2063 3766,2062 3766,2062 3767,2061 3767,2060 3767,2060 3767,2058 3767,2057 3767,2057 3767,2056 L 3766,2055 C 3765,2052 3765,2052 3765,2052 3764,2052 3764,2052 3762,2051 3760,2050 3760,2050 3756,2050 3753,2050 3753,2050 3751,2050 3750,2050 3750,2050 3745,2050 3741,2050 3741,2050 3740,2050 3740,2050 3740,2050 3734,2050 3730,2050 3730,2050 3727,2050 3725,2050 3725,2050 3724,2050 3722,2050 3722,2050 3717,2052 3713,2055 3713,2055 3712,2055 L 3709,2056 C 3705,2058 3705,2058 3704,2059 3702,2060 3702,2060 3701,2062 3699,2063 3699,2063 3698,2067 3696,2071 3696,2071 3696,2071 L 3695,2075 C 3694,2079 3694,2079 3694,2080 3694,2081 3694,2081 3693,2084 3692,2086 3692,2086 3692,2091 3692,2095 3692,2095 3692,2097 3692,2097 3692,2097 3692,2103 3692,2108 3692,2108 3692,2110 3692,2111 3692,2111 3693,2117 3694,2124 3694,2124 3696,2130 3698,2135 3698,2135 3699,2138 3699,2140 3699,2140 3702,2150 3704,2159 3704,2159 3704,2160 3704,2162 3704,2162 3706,2169 3709,2176 3709,2176 3711,2181 3714,2186 3714,2186 3715,2189 3717,2193 3717,2193 3720,2200 3724,2207 3724,2207 3724,2208 3724,2209 3724,2209 3728,2215 3731,2220 3731,2220 3733,2224 3735,2227 3735,2227 3738,2232 3741,2236 3741,2236 3745,2241 3750,2246 3750,2246 3750,2246 3750,2247 3750,2247 3755,2252 3761,2256 3761,2256 3764,2258 3766,2260 3766,2260 3770,2262 3774,2264 3774,2264 3781,2265 3787,2267 3787,2267 3788,2267 3789,2267 3789,2267 3798,2268 3806,2269 3806,2269 3809,2269 3811,2270 3811,2270 3816,2269 3821,2269 3821,2269 3827,2269 3832,2269 3832,2269 3834,2269 3836,2269 3836,2269 3843,2265 3851,2262 3851,2262 3852,2261 3854,2261 3854,2261 3858,2255 3862,2249 3862,2249 3865,2245 3868,2241 3868,2241 3870,2238 3872,2236 3872,2236 3875,2227 3879,2219 3879,2219 3879,2218 3879,2218 3879,2218 3882,2212 3885,2206 3885,2206 3886,2202 3888,2199 3888,2199 3889,2195 3890,2191 3890,2191 3892,2183 3894,2176 3894,2176 3894,2176 L 3895,2169 C 3896,2163 3896,2163 3897,2160 3897,2157 3897,2157 3897,2154 3898,2151 3898,2151 3898,2147 3899,2143 3899,2143 3899,2143 3899,2142 3899,2142 3899,2137 3899,2133 3899,2133 3899,2131 3899,2130 3899,2130 3899,2128 3899,2125 3899,2125 3899,2123 3899,2121 3899,2121 3899,2120 3899,2120 3899,2120 3899,2118 3899,2116 3899,2116 3899,2115 L 3899,2115 C 3899,2114 3899,2114 3899,2114 L 3899,2117 C 3899,2120 3899,2120 3899,2124 3899,2127 3899,2127 3899,2127 L 3899,2132 C 3899,2137 3899,2137 3899,2139 3899,2141 3899,2141 3899,2146 3899,2150 3899,2150 3901,2156 3901,2161 3901,2161 3901,2162 3901,2163 3901,2163 3904,2171 3905,2180 3905,2180 3906,2183 3907,2186 3907,2186 3909,2191 3911,2196 3911,2196 3915,2203 3918,2209 3918,2209 3920,2210 3920,2211 3920,2211 3924,2219 3928,2226 3928,2226 3928,2228 3930,2231 3930,2231 3934,2235 3939,2239 3939,2239 3944,2243 3948,2248 3948,2248 3950,2249 3952,2251 3952,2251 3959,2254 3965,2256 3965,2256 3966,2256 3967,2257 3967,2257 3974,2258 3980,2260 3980,2260 3985,2260 3990,2260 3990,2260 3993,2260 3997,2260 3997,2260 4008,2259 4019,2258 4019,2258 4020,2258 4020,2258 4020,2258 4029,2254 4038,2251 4038,2251 4042,2249 4047,2247 4047,2247 4051,2243 4055,2239 4055,2239 4061,2234 4067,2229 4067,2229 4068,2228 L 4072,2222 C 4075,2215 4075,2215 4077,2212 4078,2210 4078,2210 4080,2207 4081,2204 4081,2204 4082,2198 4084,2193 4084,2193 4084,2192 4085,2191 4085,2191 4087,2184 4088,2177 4088,2177 4089,2176 4090,2174 4090,2174 4089,2171 4088,2169 4088,2169 4088,2166 4088,2163 4088,2163 4088,2161 4088,2161 4088,2161 4088,2158 4088,2155 4088,2155 4088,2154 4088,2154 4088,2154 4088,2152 4088,2150 4088,2150 4087,2149 4086,2148 4086,2148 4085,2148 4085,2148 4085,2148 4084,2148 4083,2148 4083,2148 4082,2148 L 4082,2148 C 4081,2148 4081,2148 4081,2148 4080,2148 4080,2148 4080,2151 4079,2153 4079,2153 4079,2157 4079,2161 4079,2161 4079,2161 L 4079,2164 C 4079,2169 4079,2169 4079,2170 4079,2171 4079,2171 4079,2176 4079,2180 4079,2180 4080,2184 4081,2190 4081,2190 4081,2190 4081,2191 4081,2191 4084,2197 4087,2204 4087,2204 4088,2206 4088,2209 4088,2209 4090,2211 4092,2213 4092,2213 4095,2219 4098,2224 4098,2224 4099,2225 4100,2226 4100,2226 4103,2231 4107,2236 4107,2236 4108,2237 4109,2238 4109,2238 4112,2242 4114,2247 4114,2247 4119,2249 4124,2252 4124,2252 4126,2253 4127,2254 4127,2254 4134,2257 4141,2260 4141,2260 4141,2261 4143,2261 4143,2261 4150,2261 4158,2262 4158,2262 4164,2262 4170,2262 4170,2262 4175,2262 4179,2262 4179,2262 4188,2262 4198,2262 4198,2262 4198,2262 4198,2262 4198,2262 4206,2260 4214,2258 4214,2258 4218,2257 4222,2256 4222,2256 4225,2254 4227,2252 4227,2252 4234,2249 4239,2245 4239,2245 4240,2245 L 4244,2241 C 4248,2236 4248,2236 4249,2234 4251,2232 4251,2232 4252,2231 4254,2230 4254,2230 4255,2227 4257,2223 4257,2223 4257,2223 L 4258,2220 C 4259,2217 4259,2217 4260,2216 4260,2215 4260,2215 4260,2214 4261,2213 4261,2213 4262,2211 4262,2209 4262,2209 4262,2208 4262,2207 4262,2207 4262,2206 4262,2204 4262,2204 4262,2203 4262,2203 4262,2203 4262,2202 4262,2200 4262,2200 4261,2199 4260,2199 4260,2199 4260,2199 4259,2198 4259,2198 4258,2198 4257,2198 4257,2198 4257,2198 L 4256,2198 C 4255,2198 4255,2198 4255,2198 4254,2198 4254,2198 4255,2200 4255,2202 4255,2202 4255,2206 4255,2209 4255,2209 4255,2209 L 4255,2212 C 4255,2215 4255,2215 4255,2216 4255,2218 4255,2218 4257,2222 4259,2226 4259,2226 4261,2231 4264,2235 4264,2235 4264,2235 4265,2236 4265,2236 4267,2241 4270,2245 4270,2245 4271,2246 4272,2248 4272,2248 4275,2252 4278,2256 4278,2256 4282,2261 4287,2265 4287,2265 4288,2266 4289,2267 4289,2267 4296,2272 4302,2277 4302,2277 4304,2278 4305,2279 4305,2279 4311,2282 4317,2284 4317,2284 4322,2285 4327,2285 4327,2285 4330,2286 4332,2286 4332,2286 4339,2287 4345,2288 4345,2288 4346,2288 4347,2288 4347,2288 4354,2287 4362,2286 4362,2286 4366,2284 4370,2282 4370,2282 4374,2282 4377,2281 4377,2281 4381,2277 4385,2274 4385,2274 4386,2274 4386,2273 4386,2273 4391,2269 4395,2265 4395,2265 4398,2264 4399,2262 4399,2262 4400,2258 4401,2254 4401,2254 4404,2249 4406,2244 4406,2244 4406,2243 4406,2243 4406,2243 4408,2233 4411,2225 4411,2225 4411,2221 4412,2218 4412,2218 4415,2211 4418,2204 4418,2204 4420,2195 4422,2184 4422,2184 4423,2183 4424,2182 4424,2182 4427,2172 4431,2163 4431,2163 4432,2160 4433,2157 4433,2157 4435,2153 4437,2148 4437,2148 4438,2144 4440,2140 4440,2140 4441,2137 4442,2135 4442,2135 4445,2130 4448,2124 4448,2124 4448,2124 L 4450,2119 C 4451,2114 4451,2114 4453,2112 4454,2111 4454,2111 4454,2110 4455,2108 4455,2108 4457,2108 4459,2107 4459,2107 4459,2107 L 4461,2105 C 4463,2103 4463,2103 4464,2102 4464,2101 4464,2101 4465,2102 4467,2103 4467,2103 4469,2103 4472,2103 4472,2103 4472,2103 L 4476,2105 C 4480,2107 4480,2107 4481,2107 4483,2108 4483,2108 4484,2108 4485,2108 4485,2108 4489,2111 4491,2114 4491,2114 4492,2114 4493,2114 4493,2114 4496,2117 4500,2120 4500,2120 4501,2121 4503,2121 4503,2121 4504,2124 4506,2125 4506,2125 4507,2127 4509,2128 4509,2128 4509,2128 4509,2129 4509,2129 4512,2132 4513,2135 4513,2135 4513,2135 4514,2136 4514,2136 4514,2137 4515,2138 4515,2138 4515,2140 4515,2141 4515,2141 4515,2141 4515,2142 4515,2142 4515,2143 4515,2144 4515,2144 4515,2144 L 4512,2145 C 4509,2146 4509,2146 4508,2146 4507,2147 4507,2147 4503,2148 4500,2150 4500,2150 4497,2151 4494,2151 4494,2151 4494,2151 L 4491,2151 C 4487,2151 4487,2151 4486,2151 4484,2151 4484,2151 4481,2153 4480,2153 4480,2153 4476,2155 4473,2157 4473,2157 4473,2157 4472,2157 4472,2157 4468,2159 4464,2161 4464,2161 4463,2161 4462,2162 4462,2162 4460,2163 4459,2163 4459,2163 4457,2164 4456,2166 4456,2166 4455,2166 4455,2167 4455,2167 4454,2169 4453,2172 4453,2172 4453,2173 4453,2173 4453,2173 4453,2179 4453,2185 4453,2185 4453,2189 4453,2192 4453,2192 4453,2193 4453,2195 4453,2195 4453,2200 4453,2206 4453,2206 4453,2206 4453,2207 4453,2207 4455,2211 4457,2215 4457,2215 4459,2218 4461,2220 4461,2220 4461,2223 4463,2225 4463,2225 4467,2228 4470,2232 4470,2232 4470,2232 4471,2232 4471,2232 4478,2235 4485,2238 4485,2238 4489,2239 4493,2241 4493,2241 4496,2241 4500,2241 4500,2241 4510,2241 4520,2241 4520,2241 4520,2241 L 4553,2225 C 4586,2207 4586,2207 4599,2201 4612,2194 4612,2194 4631,2179 4650,2163 4650,2163 4670,2134 4691,2106 4691,2106 4694,2101 4698,2095 4698,2095 4720,2062 4741,2028 4741,2028 4748,2018 4754,2007 4754,2007 4767,1986 4781,1964 4781,1964 4787,1942 4794,1921 4794,1921 4797,1914 4799,1906 4799,1906 4802,1883 4805,1859 4805,1859 4805,1855 4806,1850 4806,1850 4806,1843 4807,1837 4807,1837 4807,1820 4807,1803 4807,1803 4807,1794 4807,1785 4807,1785 4805,1775 4803,1766 4803,1766 4802,1765 4802,1764 4802,1764 4799,1756 4795,1747 4795,1747 4794,1742 4792,1738 4792,1738 4790,1735 4788,1732 4788,1732 4784,1725 4781,1718 4781,1718 4781,1718 L 4778,1712 C 4777,1706 4777,1706 4776,1703 4775,1701 4775,1701 4772,1701 4769,1701 4769,1701 4768,1698 4766,1696 4766,1696 4766,1695 4765,1695 4765,1695 4762,1695 4758,1695 4758,1695 4756,1695 4755,1695 4755,1695 4754,1698 4752,1701 4752,1701 4749,1706 4746,1712 4746,1712 4746,1714 4745,1715 4745,1715 4733,1740 4720,1764 4720,1764 4718,1770 4715,1775 4715,1775 4705,1795 4694,1814 4694,1814 4687,1837 4680,1860 4680,1860 4677,1871 4674,1882 4674,1882 4664,1915 4653,1949 4653,1949 4652,1954 4651,1958 4651,1958 4642,1993 4633,2028 4633,2028 4627,2050 4622,2072 4622,2072 4618,2089 4614,2105 4614,2105 4607,2140 4599,2174 4599,2174 4599,2175 4599,2176 4599,2176 4595,2202 4592,2228 4592,2228 4590,2241 4588,2254 4588,2254 4589,2251 4590,2249 4590,2249 4589,2257 4588,2266 4588,2266 4589,2267 4590,2267 4590,2267 4590,2276 4590,2284 4590,2284 4590,2287 4590,2291 4590,2291 4590,2295 4590,2299 4590,2299 4590,2304 4590,2308 4590,2308 4590,2310 4590,2310 4590,2310 4592,2314 4594,2318 4594,2318 4594,2319 4595,2320 4595,2320 4597,2319 4599,2318 4599,2318 4603,2318 4607,2318 4607,2318 4609,2318 4610,2318 4610,2318 4621,2314 4631,2310 4631,2310 4633,2310 4634,2309 4634,2309 4642,2306 4650,2303 4650,2303 4656,2301 4661,2298 4661,2298 4665,2297 4669,2295 4669,2295 4676,2292 4683,2288 4683,2288 4684,2288 4684,2288 4684,2288 4689,2285 4694,2282 4694,2282 4697,2281 4700,2279 4700,2279 4702,2279 4704,2278 4704,2278 4709,2278 4715,2277 4715,2277 4715,2277 4715,2277 4715,2277 4720,2276 4725,2275 4725,2275 4726,2274 4728,2274 4728,2274 4731,2274 4733,2275 4733,2275 4736,2275 4739,2275 4739,2275 4739,2275 4739,2275 4739,2275 4743,2275 4747,2275 4747,2275 4748,2275 4749,2275 4749,2275 4752,2277 4754,2278 4754,2278 4757,2280 4760,2281 4760,2281 4761,2282 4762,2282 4762,2282 4765,2284 4769,2286 4769,2286 4770,2287 4771,2287 4771,2287 4773,2288 4775,2290 4775,2290 4779,2291 4784,2292 4784,2292 4785,2293 4788,2294 4788,2294 4797,2294 4805,2295 4805,2295 4805,2295 4807,2295 4807,2295 4832,2292 4857,2288 4857,2288 4870,2286 4883,2284 4883,2284 4905,2269 4926,2254 4926,2254 4958,2228 4990,2202 4990,2202 4990,2202 4990,2202 4990,2202 5012,2179 5034,2155 5034,2155 5044,2145 5055,2134 5055,2134 5051,2137 5047,2140 5047,2140 5052,2134 5056,2128 5056,2128 5056,2128 5057,2127 5057,2127 5060,2123 5063,2118 5063,2118 5063,2116 5065,2115 5065,2115 5063,2112 5063,2111 5063,2111 5061,2109 5060,2107 5060,2107 5059,2107 5059,2107 5059,2107 5055,2106 5050,2105 5050,2105 5049,2105 5047,2104 5047,2104 5040,2105 5033,2105 5033,2105 5010,2110 4986,2115 4986,2115 4976,2117 4965,2120 4965,2120 4954,2123 4943,2125 4943,2125 4941,2126 4940,2126 4940,2126 4930,2130 4921,2135 4921,2135 4916,2137 4910,2140 4910,2140 4907,2142 4904,2144 4904,2144 4896,2151 4889,2159 4889,2159 4889,2159 4888,2160 4888,2160 4882,2187 4876,2215 4876,2215 4873,2229 4869,2242 4869,2242 4869,2242"/>
       </g>
      </g>
      <g class="com.sun.star.drawing.PolyLineShape">
       <g id="id9">
        <rect class="BoundingBox" stroke="none" fill="none" x="4299" y="1840" width="106" height="106"/>
       </g>
      </g>
     </g>
    </g>
   </g>
  </g>
 </g>
</svg>